<?xml version="1.0" encoding="utf-8"?>
<!-- Generator: Adobe Illustrator 22.1.0, SVG Export Plug-In . SVG Version: 6.00 Build 0)  -->
<svg version="1.1" id="Слой_1" xmlns="http://www.w3.org/2000/svg" xmlns:xlink="http://www.w3.org/1999/xlink" x="0px" y="0px"
	 viewBox="0 0 205 35" style="enable-background:new 0 0 205 35;" xml:space="preserve">
<g>
	<path style="fill:#FFFFFF;" d="M16.2,34.2c-1.1,0.6-2.7,0.8-4.8,0.8c-5.1,0-7.6-2.6-7.6-7.9V16.5H0v-5.3h3.8v-5l7.2-2v7.1h5.3v5.3
		H11v9.4c0,2.4,1,3.6,2.9,3.6c0.8,0,1.5-0.2,2.4-0.7V34.2z"/>
</g>
<g>
	<path style="fill:#FFF200;" d="M134.8,34.4h-7.2V21.2c0-3.4-1.2-5.1-3.7-5.1c-1.2,0-2.2,0.5-2.9,1.5c-0.7,1-1.1,2.3-1.1,3.8v13
		h-7.2V21c0-3.3-1.2-4.9-3.7-4.9c-1.2,0-2.2,0.5-3,1.5c-0.7,1-1.1,2.3-1.1,4v12.9h-7.2V11.2h7.2v3.6h0.1c0.7-1.2,1.8-2.3,3.1-3
		c1.3-0.8,2.8-1.2,4.4-1.2c3.3,0,5.6,1.4,6.8,4.3c1.8-2.9,4.4-4.3,7.9-4.3c5.1,0,7.6,3.1,7.6,9.4V34.4z"/>
	<path style="fill:#FFF200;" d="M144.1,7.5c-1.2,0-2.2-0.4-3-1.1c-0.8-0.7-1.2-1.6-1.2-2.6c0-1.1,0.4-2,1.2-2.6c0.8-0.7,1.8-1,3-1
		c1.2,0,2.2,0.3,3,1c0.8,0.7,1.2,1.6,1.2,2.6c0,1.1-0.4,2-1.2,2.7C146.4,7.1,145.4,7.5,144.1,7.5z M147.7,34.4h-7.2V11.2h7.2V34.4z"
		/>
	<path style="fill:#FFF200;" d="M176.4,34.4h-7.2V21.5c0-3.6-1.3-5.4-3.9-5.4c-1.2,0-2.3,0.5-3.1,1.4c-0.8,1-1.2,2.2-1.2,3.6v13.3
		h-7.2V11.2h7.2v3.7h0.1c1.7-2.8,4.2-4.2,7.5-4.2c5.2,0,7.8,3.2,7.8,9.6V34.4z"/>
	<path style="fill:#FFF200;" d="M205,34.4h-7.2v-3.2h-0.1c-1.6,2.5-4.1,3.8-7.2,3.8c-2.9,0-5.3-1-7.1-3.1c-1.8-2.1-2.7-4.9-2.7-8.6
		c0-3.8,1-6.9,2.9-9.2s4.5-3.5,7.7-3.5c3,0,5.1,1.1,6.3,3.2h0.1V0h7.2V34.4z M197.9,23.1v-1.7c0-1.5-0.4-2.8-1.3-3.8
		c-0.9-1-2-1.5-3.5-1.5c-1.6,0-2.8,0.6-3.7,1.9s-1.3,3-1.3,5.1c0,2,0.4,3.6,1.3,4.7s2.1,1.7,3.6,1.7c1.5,0,2.7-0.6,3.6-1.7
		C197.5,26.6,197.9,25,197.9,23.1z"/>
</g>
</svg>
